<?xml version="1.0" encoding="utf-8"?>
<!-- Generator: Adobe Illustrator 16.0.0, SVG Export Plug-In . SVG Version: 6.00 Build 0)  -->
<!DOCTYPE svg PUBLIC "-//W3C//DTD SVG 1.1//EN" "http://www.w3.org/Graphics/SVG/1.1/DTD/svg11.dtd">
<svg version="1.1" id="Layer_1" xmlns="http://www.w3.org/2000/svg" xmlns:xlink="http://www.w3.org/1999/xlink" x="0px" y="0px"
	 width="5373.292px" height="1433.55px" viewBox="366.73 287.906 5373.292 1433.55"
	 enable-background="new 366.73 287.906 5373.292 1433.55" xml:space="preserve">
<rect y="-107.239" display="none" width="6222.842" height="2123.243"/>
<path fill="#FFFFFF" d="M1218.48,954.49c-1.396-158.356,129.688-235.395,135.639-238.986
	c-74.225-108.242-189.278-123.02-229.729-124.196c-96.631-10.171-190.385,57.813-239.604,57.813
	c-50.188,0-125.997-56.831-207.756-55.175c-105.122,1.632-203.482,62.493-257.411,157.039
	c-111.364,192.729-28.313,475.981,78.35,631.774c53.355,76.334,115.729,161.5,197.294,158.48
	c79.84-3.168,109.688-50.859,206.027-50.859c95.479,0,123.499,50.859,206.697,48.939c85.688-1.248,139.623-76.625,191.146-153.635
	c61.609-87.32,86.366-173.596,87.372-178.012C1384.538,1207.007,1220.161,1144.251,1218.48,954.49z"/>
<path fill="#FFFFFF" d="M1061.25,488.82c42.943-53.711,72.354-126.761,64.197-200.914c-62.188,2.759-139.909,42.99-184.628,95.527
	c-39.631,46.275-74.992,122.132-65.826,193.479C944.754,582.119,1016.438,541.673,1061.25,488.82z"/>
<g>
	<path fill="#FFFFFF" d="M2374.896,1530.298H2263.34l-61.126-192.018h-212.457l-58.246,192.018h-108.625l210.535-653.846h130.026
		L2374.896,1530.298z M2183.79,1257.675l-55.272-170.713c-5.854-17.465-16.89-58.535-33.011-123.186h-1.917
		c-6.527,27.805-16.89,68.874-31.093,123.186l-54.313,170.713H2183.79z"/>
	<path fill="#FFFFFF" d="M2915.245,1288.771c0,80.225-21.731,143.559-65.347,190.1c-39.012,41.4-87.521,62.084-145.333,62.084
		c-62.47,0-107.378-22.266-134.632-66.887v247.389h-104.74v-507.631c0-50.377-1.297-102.006-3.885-154.98h92.121l5.854,74.756h1.968
		c34.929-56.326,87.944-84.541,159.052-84.541c55.657,0,102.104,21.977,139.237,65.928
		C2896.63,1159.125,2915.245,1216.994,2915.245,1288.771z M2808.538,1292.611c0-45.869-10.315-83.73-31.043-113.521
		c-22.646-30.998-53.065-46.543-91.21-46.543c-25.862,0-49.322,8.637-70.291,25.719c-21.016,17.18-34.834,39.637-41.264,67.459
		c-3.215,12.953-4.844,23.516-4.844,31.814v78.732c0,34.158,10.506,63.098,31.521,86.85c21.063,23.51,48.364,35.404,81.951,35.404
		c39.485,0,70.188-15.262,92.121-45.582C2797.552,1382.521,2808.538,1342.414,2808.538,1292.611z"/>
	<path fill="#FFFFFF" d="M3457.516,1288.771c0,80.225-21.782,143.559-65.35,190.1c-39.055,41.4-87.516,62.084-145.377,62.084
		c-62.424,0-107.334-22.266-134.632-66.887v247.389h-104.743v-507.631c0-50.377-1.341-102.006-3.886-154.98h92.122l5.853,74.756
		h1.97c34.882-56.326,87.899-84.541,159.101-84.541c55.563,0,102.008,21.977,139.238,65.928
		C3438.852,1159.125,3457.516,1216.994,3457.516,1288.771z M3350.762,1292.611c0-45.869-10.365-83.73-31.094-113.521
		c-22.645-30.998-52.971-46.543-91.113-46.543c-25.861,0-49.32,8.637-70.389,25.719c-21.012,17.18-34.74,39.637-41.167,67.459
		c-3.215,12.953-4.988,23.516-4.988,31.814v78.732c0,34.158,10.556,63.098,31.57,86.85c21.021,23.51,48.271,35.404,82.049,35.404
		c39.486,0,70.193-15.262,92.121-45.582C3339.727,1382.521,3350.762,1342.414,3350.762,1292.611z"/>
	<path fill="#FFFFFF" d="M4063.792,1346.917c0,55.658-19.435,100.904-58.104,135.832c-42.559,38.143-101.957,57.24-178.104,57.24
		c-70.432,0-126.762-13.58-169.318-40.736l24.229-87.27c45.916,27.152,96.396,40.729,151.33,40.729
		c39.486,0,70.193-8.924,92.121-26.674c21.979-17.801,33.057-41.553,33.057-71.25c0-26.584-9.151-48.848-27.194-66.979
		c-18.146-17.992-48.123-34.934-90.199-50.328c-114.482-42.705-171.771-105.229-171.771-187.271
		c0-53.643,20.248-97.545,60.551-131.947c40.398-34.275,93.945-51.435,160.64-51.435c59.493,0,109.059,10.365,148.399,31.046
		l-26.293,85.403c-37.039-20.061-78.832-30.084-125.608-30.084c-36.945,0-65.976,9.092-86.701,27.181
		c-17.416,16.192-26.293,35.867-26.293,59.279c0,25.766,10.074,47.213,30.131,64.006c17.369,15.451,49.142,32.34,95.058,50.479
		c56.272,22.646,97.639,49.133,124.123,79.4C4050.5,1263.869,4063.792,1301.72,4063.792,1346.917z"/>
	<path fill="#FFFFFF" d="M4411.021,1137.439h-115.535v228.91c0,58.199,20.342,87.273,61.127,87.273
		c18.713,0,34.258-1.582,46.539-4.941l2.881,79.557c-20.631,7.729-47.787,11.607-81.375,11.607
		c-41.455,0-73.696-12.717-97.112-37.904c-23.313-25.23-34.929-67.557-34.929-127.102v-237.648h-68.709v-78.639h68.709v-86.292
		l102.869-31.042v117.333h115.535V1137.439L4411.021,1137.439z"/>
	<path fill="#FFFFFF" d="M4930.936,1290.687c0,72.447-20.729,131.941-62.184,178.484c-43.275,47.883-100.854,71.777-172.633,71.777
		c-69.283,0-124.363-22.938-165.434-68.803c-41.072-45.918-61.609-103.734-61.609-173.543c0-73.074,21.305-132.906,63.527-179.445
		c42.313-46.494,99.416-69.859,171.188-69.859c69.189,0,124.75,23.076,166.875,68.9
		C4910.926,1162.675,4930.936,1220.162,4930.936,1290.687z M4822.309,1293.085c0-43.186-9.26-80.225-27.975-111.221
		c-21.973-37.42-53.498-56.133-94.135-56.133c-41.984,0-74.229,18.713-96.059,56.133c-18.855,30.996-28.115,68.709-28.115,113.186
		c0,43.23,9.258,80.367,28.115,111.271c22.645,37.521,54.268,56.229,95.229,56.229c39.979,0,71.396-19.188,94.146-57.094
		C4812.663,1373.697,4822.309,1336.369,4822.309,1293.085z"/>
	<path fill="#FFFFFF" d="M5271.543,1150.968c-10.359-1.916-21.445-2.879-33.01-2.879c-36.848,0-65.35,13.771-85.402,41.742
		c-17.418,24.566-26.147,55.609-26.147,93.082v247.385h-104.742v-323.002c0-54.215-1.006-103.828-3.021-148.4h91.16l3.838,90.203
		h2.978c11.084-30.996,28.498-55.994,52.297-74.707c23.416-16.936,48.563-25.334,75.715-25.334c9.69,0,18.426,0.771,26.194,1.924
		L5271.543,1150.968L5271.543,1150.968z"/>
	<path fill="#FFFFFF" d="M5740.021,1272.261c0,18.766-1.248,34.596-3.84,47.498h-314.219c1.104,46.596,16.408,82.238,45.58,106.813
		c26.484,21.926,60.74,32.912,102.771,32.912c46.541,0,88.955-7.291,127.145-22.27l16.41,72.691
		c-44.623,19.43-97.305,29.125-158.045,29.125c-73.125,0-130.506-21.494-172.248-64.438
		c-41.645-42.988-62.566-100.809-62.566-173.16c0-71.01,19.388-130.219,58.25-177.432c40.688-50.379,95.672-75.617,164.855-75.617
		c67.941,0,119.375,25.238,154.305,75.617C5726.107,1163.921,5740.021,1213.439,5740.021,1272.261z M5640.127,1245.105
		c0.719-31.092-6.141-57.859-20.346-80.512c-18.146-29.27-46.01-43.805-83.439-43.805c-34.258,0-62.135,14.201-83.389,42.701
		c-17.369,22.645-27.734,49.945-30.996,81.422L5640.127,1245.105L5640.127,1245.105z"/>
</g>
<g>
	<g>
		<path fill="#FFFFFF" d="M1959.534,645.31c-29.125,0-54.314-1.438-75.33-3.838V325.355c27.157-4.271,56.711-6.695,88.665-6.695
			c120.145,0,175.514,59.111,175.514,155.457C2148.383,585.264,2083.033,645.31,1959.534,645.31z M1977.093,359.203
			c-16.218,0-29.98,0.985-41.454,3.336v240.308c6.235,0.981,18.09,1.438,34.834,1.438c78.688,0,123.499-44.813,123.499-128.729
			C2093.972,400.731,2053.429,359.203,1977.093,359.203z"/>
		<path fill="#FFFFFF" d="M2320.727,647.707c-67.648,0-111.556-50.569-111.556-119.182c0-71.538,44.813-122.541,115.396-122.541
			c66.739,0,111.603,48.146,111.603,118.75C2436.166,597.138,2389.914,647.707,2320.727,647.707z M2322.74,443.602
			c-37.23,0-61.028,34.783-61.028,83.438c0,47.717,24.277,82.504,60.502,82.504c36.226,0,60.55-37.211,60.55-83.486
			C2382.764,478.891,2358.919,443.602,2322.74,443.602z"/>
		<path fill="#FFFFFF" d="M2822.212,410.735l-72.45,231.719h-47.211l-30.035-100.637c-7.58-25.239-13.813-50.044-18.611-74.827
			h-0.958c-3.792,25.264-10.942,50.567-18.619,74.827l-31.904,100.637h-47.688l-68.18-231.719h52.871l26.246,110.154
			c6.188,26.245,11.371,51.007,15.735,74.396h1.009c3.741-19.504,9.936-43.878,19.002-73.915l32.912-110.593h41.981l31.521,108.241
			c7.582,26.241,13.816,51.983,18.613,76.313h1.346c3.358-23.821,8.643-49.132,15.738-76.313l28.163-108.241L2822.212,410.735
			L2822.212,410.735z"/>
		<path fill="#FFFFFF" d="M3089.029,642.454h-51.481v-133.05c0-40.979-15.739-61.515-46.729-61.515
			c-30.519,0-51.528,26.228-51.528,56.734V642.45h-51.438V476.97c0-20.479-0.479-42.437-1.923-66.285h45.293l2.4,35.771h1.438
			c13.818-24.757,41.938-40.47,73.409-40.47c48.652,0,80.605,37.185,80.605,97.711L3089.029,642.454L3089.029,642.454z"/>
		<path fill="#FFFFFF" d="M3231.002,642.454h-51.531V304.41h51.531V642.454z"/>
		<path fill="#FFFFFF" d="M3418.75,647.707c-67.654,0-111.557-50.569-111.557-119.182c0-71.538,44.717-122.541,115.344-122.541
			c66.789,0,111.555,48.146,111.555,118.75C3534.139,597.138,3487.887,647.707,3418.75,647.707z M3420.667,443.602
			c-37.185,0-61.029,34.783-61.029,83.438c0,47.717,24.373,82.504,60.504,82.504c36.185,0,60.451-37.211,60.451-83.486
			C3480.689,478.891,3456.893,443.602,3420.667,443.602z"/>
		<path fill="#FFFFFF" d="M3737.096,642.454l-3.74-26.678h-1.299c-15.733,21.472-38.672,31.931-67.748,31.931
			c-41.598,0-71.012-29.074-71.012-68.203c0-57.188,49.662-86.771,135.451-86.771v-4.271c0-30.517-16.121-45.771-48.127-45.771
			c-22.885,0-42.896,5.729-60.549,17.178l-10.459-33.854c21.438-13.356,48.123-20.024,79.551-20.024
			c60.502,0,91.111,31.932,91.111,95.84v85.354c0,23.396,1.01,41.504,3.313,55.32L3737.096,642.454L3737.096,642.454z
			 M3730.042,527.037c-57.188,0-85.883,13.868-85.883,46.734c0,24.318,14.776,36.192,35.313,36.192
			c26.195,0,50.57-19.979,50.57-47.163V527.037L3730.042,527.037z"/>
		<path fill="#FFFFFF" d="M4030.252,642.454l-2.396-37.208h-1.44c-14.777,28.116-39.631,42.461-74.367,42.461
			c-55.938,0-97.254-49.132-97.254-118.271c0-72.444,42.896-123.5,101.48-123.5c30.996,0,52.975,10.46,65.35,31.479h1.015V304.41
			h51.524v275.597c0,22.407,0.529,43.376,1.92,62.447H4030.252z M4022.625,506.118c0-32.438-21.447-60.093-54.268-60.093
			c-38.193,0-61.517,33.848-61.517,81.485c0,46.734,24.229,78.712,60.502,78.712c32.396,0,55.272-28.139,55.272-61.512v-38.597
			L4022.625,506.118L4022.625,506.118z"/>
		<path fill="#FFFFFF" d="M4400.948,647.707c-67.646,0-111.603-50.569-111.603-119.182c0-71.538,44.813-122.541,115.439-122.541
			c66.691,0,111.551,48.146,111.551,118.75C4516.389,597.138,4470.133,647.707,4400.948,647.707z M4402.866,443.602
			c-37.138,0-60.979,34.783-60.979,83.438c0,47.717,24.324,82.504,60.502,82.504s60.455-37.211,60.455-83.486
			C4462.984,478.891,4439.141,443.602,4402.866,443.602z"/>
		<path fill="#FFFFFF" d="M4793.232,642.454H4741.7v-133.05c0-40.979-15.729-61.515-46.729-61.515
			c-30.518,0-51.436,26.228-51.436,56.734V642.45h-51.533V476.97c0-20.479-0.479-42.437-1.918-66.285h45.295l2.396,35.771h1.438
			c13.816-24.757,41.938-40.521,73.408-40.521c48.652,0,80.605,37.188,80.605,97.716v138.806L4793.232,642.454L4793.232,642.454z"/>
		<path fill="#FFFFFF" d="M5139.646,449.357h-56.565v112.514c0,28.646,9.836,42.943,29.896,42.943c9.164,0,16.689-0.986,22.84-2.4
			l1.438,39.104c-9.979,3.845-23.315,5.756-39.869,5.756c-40.595,0-64.871-22.397-64.871-81.086v-116.83h-33.824V410.74h33.824
			V368.3l50.571-15.28v57.667h56.563v38.675h-0.002L5139.646,449.357L5139.646,449.357z"/>
		<path fill="#FFFFFF" d="M5412.271,642.454h-51.436V510.39c0-41.479-15.691-62.441-46.734-62.441
			c-26.678,0-51.526,18.106-51.526,54.813v139.694h-51.437V304.41h51.437V443.6h1.006c16.228-25.234,39.688-37.658,69.668-37.658
			c49.033,0,79.022,38.113,79.022,98.688V642.454L5412.271,642.454z"/>
		<path fill="#FFFFFF" d="M5691.514,538.984h-154.496c0.959,43.854,30.037,68.636,73.025,68.636c22.836,0,43.854-3.839,62.42-10.962
			l8.014,35.769c-21.924,9.524-47.688,14.298-77.727,14.298c-72.451,0-115.344-45.796-115.344-116.778
			c0-71.032,43.895-124.458,109.49-124.458c59.209,0,96.346,43.875,96.346,110.154C5693.434,524.688,5693,532.796,5691.514,538.984z
			 M5644.301,502.28c0-35.771-18.041-61.029-50.955-61.029c-29.557,0-52.971,25.739-56.328,61.029H5644.301z"/>
	</g>
</g>
</svg>
